<?xml version="1.0" encoding="utf-8"?>
<svg version="1.1" xmlns="http://www.w3.org/2000/svg" xmlns:xlink="http://www.w3.org/1999/xlink" x="0px" y="0px"
	 viewBox="0 0 116 204" style="enable-background:new 0 0 116 204;" xml:space="preserve">
<style type="text/css">
	.st0{enable-background:new;}
	.st1{fill-rule:evenodd;clip-rule:evenodd;fill:#004E96;}
	.st2{fill-rule:evenodd;clip-rule:evenodd;fill:#FFFFFF;}
</style>
<g id="a_1_" class="st0">
	<g id="a">
		<g>
			<path class="st1" d="M94,70c0,0,41-32.3,10-66c-6.7-7.3-17.4-3-19,10c-1.6,13-7,32-7,32s-9.2-13.4-19-3c0,0-14.4-13.4-19,8
				c0,0-8.3-19-13-37C22.8-2,4.6,5.3,2,16c-7.2,30.2,19,54,19,54S10.5,77.5,8,96c0.1,12.3,0,108,0,108l98,0V94
				C106,94,103,77.6,94,70z"/>
		</g>
	</g>
</g>
<g id="b_1_" class="st0">
	<g id="b">
		<g>
			<path class="st2" d="M83,69c30.2-21.8,26.8-44,20-55c-6.7-11-11,0-11,0c-2.3,31-16,51-16,51c-5.7-4-10-4-10-4s7.7-12.3,2-15
				c-7.7-3.7-9,11-9,11s-4.3-14-9-11c-6.1,3.9,2,15,2,15c-4,0.3-13,3-13,3c-9.8-9-18-46-18-46s-0.8-5.7-4-6c-3.3-0.2-9.3,3.3-9,16
				c0.5,24.8,24,41,24,41C15.9,81.1,16,95,16,95v108.8l83,0.2c0,0,0-87.2,0-106C99,78.7,83,69,83,69z"/>
		</g>
	</g>
</g>
<g id="c_1_" class="st0">
	<g id="c">
		<g>
			<path class="st1" d="M73,113c-5.1,9.9-13,5-13,5v-10c0,0,9.1-2.5,8-6c-1.4-4.4-11-3-11-3s-10.9-1.3-11,3c-0.1,4.3,9,6,9,6v10
				c-6.8,5.3-13-3-13-3s-0.9-3.6-3-3c-2.4,0.6-1,4-1,4s5,13.4,19,13c14-0.4,19.1-11.6,20-14C77.9,112.5,75.4,108.4,73,113z M40,92
				c0-0.9-0.2-1.7-0.5-2.4C39,90.4,38.1,91,37,91c-1.7,0-3-1.3-3-3c0-1.1,0.6-2,1.4-2.5C34.7,85.2,33.9,85,33,85c-3.9,0-7,3.1-7,7
				c0,3.9,3.1,7,7,7C36.9,99,40,95.9,40,92z M88.5,89.6C88,90.4,87.1,91,86,91c-1.7,0-3-1.3-3-3c0-1.1,0.6-2,1.4-2.5
				C83.7,85.2,82.9,85,82,85c-3.9,0-7,3.1-7,7c0,3.9,3.1,7,7,7c3.9,0,7-3.1,7-7C89,91.1,88.8,90.3,88.5,89.6z"/>
		</g>
	</g>
</g>
</svg>
