<?xml version="1.0" encoding="utf-8"?>
<svg version="1.1" id="图层_1" xmlns="http://www.w3.org/2000/svg" xmlns:xlink="http://www.w3.org/1999/xlink" x="0px" y="0px"
 viewBox="0 0 241.7 389.6" style="enable-background:new 0 0 241.7 389.6;" xml:space="preserve">
<style type="text/css">
.st0{fill:#CADEE9;}
.st1{fill:#E9EFF3;}
.st2{fill:none;stroke:#435168;stroke-width:5.5;stroke-miterlimit:10;}
.st3{fill:#89B2C0;}
.st4{fill:#CADEE9;stroke:#414D68;stroke-width:6;stroke-miterlimit:10;}
.st5{fill:#648C99;}
.st6{fill:#ECDD85;stroke:#435168;stroke-width:6;stroke-miterlimit:10;}
.st7{fill:#CADDEA;stroke:#435168;stroke-width:6;stroke-miterlimit:10;}
.st8{fill:#6B8CBE;}
.st9{fill:#414D68;}
.st10{fill:none;stroke:#E3EDF6;stroke-width:3;stroke-miterlimit:10;}
.st11{fill:none;stroke:#414D68;stroke-width:6;stroke-miterlimit:10;}
.st12{fill:none;stroke:#E3EDF6;stroke-miterlimit:10;}
.st13{fill:#A4B2CF;}
.st14{fill:#414E69;}
.st15{fill:#FFFFFF;}
</style>
<g>
<polygon class="st0" points="224.9,119.7 217,131.8 209.2,141.2 200.7,149.3 197.9,153.1 201.9,174.6 207.1,191.1 209.2,192.6 
219.1,179.5 233.4,155.8 239.8,134 237.7,121.6 233.9,118 225.8,118 "/>
<polygon class="st0" points="17.6,114.9 25.5,127 33.3,136.3 41.8,144.4 44.6,148.3 40.6,169.8 35.5,186.2 33.3,187.8 23.4,174.7 
9.1,150.9 2.7,129.2 4.8,116.8 8.6,113.1 16.7,113.1 "/>
<path class="st1" d="M33.1,139.1c-1.9,3.3-8.3,11.6-22.1,8.6c-0.5-0.1-0.9-0.4-1-0.7c-1.9-3.6-11.9-23.2-6.5-31.4
c0,0,3.7-5.3,11.8-1.9c1.3,0.6,2.4,1.5,2.9,2.6c1.8,3.8,6.5,13.7,14.5,20.6C33.3,137.4,33.6,138.3,33.1,139.1z"/>
<path class="st2" d="M44.1,146.5c-4.7-4.6-16.4-18.6-21.5-26.1c-9-13.2-26.5-17.6-17.2,19c4.8,18.8,23.4,41.4,29.1,50"/>
<polygon class="st3" points="101.7,172.9 94.7,174.6 87.4,183.1 87.4,195.6 90.4,200.5 105.9,203.2 120.9,203.8 139.4,202.7 
148.3,201.3 154.4,196 155.7,187.7 149.1,176.7 133.9,168.3 115.4,167 102.1,169.4 "/>
<path class="st4" d="M192.6,117.6c-1.7-19.5-28.1-55.5-73.1-54.8c-45.7,0.7-65.3,21.4-72.9,68.2c-2.2,13.7-6.4,40.5-13.6,68.6
c-6.8,26.8-17.1,42.1-16.5,68.6c0.2,11.3,1.4,20.8,5.7,30.8c15.1,34.8,49.5,63.7,96.8,62.8c57.2-1.2,86.6-29,100.7-65.2
c0,0,10.9-28.8-5.3-78.3c-15.9-48.4-16.8-68.7-16.8-68.7S194.3,121.9,192.6,117.6z"/>
<path class="st5" d="M94.7,201.1c0.1-0.2,21.7-29.6,53-0.7c-11.9,4.3-12,1.4-16.3,0.6c-0.6-0.1-1.1-0.2-1.6-0.3
c-2.8-0.4-10.4-1.3-19.7,0.7c-0.2,0-0.5,0.1-0.7,0.2C106.3,202.5,97.9,202.5,94.7,201.1z"/>
<circle class="st6" cx="144.4" cy="13.5" r="9.8"/>
<path class="st7" d="M136.5,21.1c0,0-8.6,24.5-8.5,40.7c0,0,9,0.2,16,2.4c0,0,0.4-41.5,1.8-39.9C147.2,25.9,136.7,20.9,136.5,21.1z
"/>
<circle class="st6" cx="91.3" cy="12.8" r="9.8"/>
<path class="st1" d="M209.4,144.3c1.8,3.2,7.9,11.1,21.1,8.2c0.4-0.1,0.8-0.4,1-0.7c1.8-3.4,11.4-22.2,6.2-30.1
c0,0-3.6-5.1-11.3-1.8c-1.3,0.5-2.3,1.4-2.8,2.5c-1.7,3.6-6.2,13.1-13.8,19.7C209.2,142.7,209,143.5,209.4,144.3z"/>
<path class="st7" d="M99.2,21.9c0,0,8.6,24.7,8.5,41.1c0,0-9,0.2-16,2.4c0,0-1.7-38.2-1.8-40.2C89.9,23.9,98.4,19.6,99.2,21.9z"/>
<path class="st2" d="M198.4,151.4c4.7-4.6,17.1-18.2,21.5-26.1c6.2-11.2,25-20.4,17.2,19c-3.9,19.4-23.4,41.4-29.1,50"/>
<path class="st2" d="M200.9,162.3"/>
<path class="st2" d="M206,183.9"/>
<path class="st4" d="M179.3,375.8c1.1-12.2,4.1-32.6,5.8-33.4c1.5-0.8-18.8,11.3-32.8,15c-1.8,0.5-3.3,0.8-2.3,2.4
c3.4,5.5,4.8,18.8,5.4,23.4c0.2,1.2,1.4,2,2.7,2.2c3.8,0.5,12.5,1.6,17.5,0.9c1.4-0.2,2.6-1.3,2.8-2.7
C178.7,382,179,379.5,179.3,375.8z"/>
<line class="st4" x1="154.7" y1="376.9" x2="178.7" y2="376.9"/>
<path class="st8" d="M175.8,384.9h-16.7c-0.6,0-1.2-0.5-1.2-1.2v-2.9c0-0.6,0.5-1.2,1.2-1.2h16.7c0.6,0,1.2,0.5,1.2,1.2v2.9
C176.9,384.3,176.4,384.9,175.8,384.9z"/>
<path class="st4" d="M61,374.9c-1.1-12.7-4.1-33.8-5.8-34.7c-1.5-0.8,18.8,11.7,32.8,15.6c1.8,0.5,3.3,0.8,2.3,2.5
c-3.4,5.7-4.8,19.5-5.4,24.3c-0.2,1.3-1.4,2.1-2.7,2.3c-3.8,0.6-12.5,1.7-17.5,0.9c-1.4-0.2-2.6-1.4-2.8-2.8
C61.7,381.4,61.3,378.8,61,374.9z"/>
<line class="st4" x1="85.7" y1="376.4" x2="61.7" y2="376.4"/>
<path class="st8" d="M66,385.2h15.2c0.7,0,1.3-0.6,1.3-1.3v-2.6c0-0.7-0.6-1.3-1.3-1.3H66c-0.7,0-1.3,0.6-1.3,1.3v2.6
C64.7,384.6,65.3,385.2,66,385.2z"/>
<g>
<g>
<path class="st9" d="M79.9,111.9c3.5-6,9.8-10.6,16.4-6.2c2.8,1.9,5.5-2.7,2.6-4.5c-9.1-6-18.7-0.4-23.6,8.1
C73.6,112.2,78.2,114.9,79.9,111.9L79.9,111.9z"/>
</g>
</g>
<path class="st1" d="M32.6,311.2c0,0,21.7-68.4,87.2-66.7c0,0,62-5.8,88.1,66.7c0,0-11.2,33.5-63.4,46
C144.5,357.3,66.7,373.5,32.6,311.2z"/>
<g>
<g>
<path class="st9" d="M115.4,220.5c0.2-0.3-0.1,0.1-0.1,0.2c0.2-0.2,0.3-0.4,0.5-0.6c0.6-0.6,1.2-1.1,1.9-1.6
c2.6-1.5,4.9-0.3,7,1.7c2.4,2.3,6.2-1.4,3.7-3.7c-3.3-3.1-7.5-5-11.9-3.2c-2.3,0.9-4.2,2.6-5.6,4.6
C108.9,220.6,113.4,223.3,115.4,220.5L115.4,220.5z"/>
</g>
</g>
<g>
<g>
<path class="st9" d="M112.5,295.4c0.9-1.6,2.5-3.1,4-4.1c4.9-3,9.3,0.8,12.5,4.6c2.2,2.6,5.9-1.1,3.7-3.7c-4.2-5-10.3-9.1-17-6.3
c-3.1,1.3-6.2,3.9-7.8,6.9C106.4,295.8,110.9,298.4,112.5,295.4L112.5,295.4z"/>
</g>
</g>
<g>
<g>
<path class="st9" d="M164,108.1c-4.5-8.3-13.7-13.5-22.3-7.5c-2.7,1.9-0.1,6.5,2.6,4.5c6.2-4.3,11.9-0.1,15.1,5.7
C161.1,113.7,165.7,111,164,108.1L164,108.1z"/>
</g>
</g>
<circle class="st10" cx="124.6" cy="72.9" r="3.4"/>
<circle class="st10" cx="155.8" cy="79.7" r="2.5"/>
<circle class="st10" cx="95.9" cy="78.6" r="3.4"/>
<circle class="st10" cx="72.5" cy="88.3" r="3.4"/>
<circle class="st10" cx="107" cy="102.4" r="3.4"/>
<circle class="st10" cx="129.6" cy="121.5" r="3.4"/>
<circle class="st10" cx="89.1" cy="116.1" r="2.9"/>
<circle class="st10" cx="61.6" cy="110.6" r="3.4"/>
<circle class="st10" cx="105.3" cy="132.2" r="3.4"/>
<circle class="st10" cx="76.1" cy="142.7" r="3.4"/>
<circle class="st10" cx="116.4" cy="152.8" r="3.4"/>
<circle class="st10" cx="147.8" cy="143" r="3.4"/>
<circle class="st10" cx="186.7" cy="152.6" r="3.4"/>
<circle class="st10" cx="168.5" cy="112.5" r="3.4"/>
<circle class="st10" cx="161.8" cy="171.2" r="3.4"/>
<circle class="st10" cx="173.5" cy="197.5" r="3.4"/>
<circle class="st10" cx="190.8" cy="219.2" r="3.4"/>
<path class="st10" d="M202.9,190.9c-1.8,0.5-3.9-0.6-4.4-2.5c-0.5-1.8,0.8-3.7,2.6-4.1"/>

<ellipse transform="matrix(0.7841 -0.6207 0.6207 0.7841 -112.4193 188.486)" class="st10" cx="214.7" cy="255.8" rx="2.4" ry="2.4"/>
<circle class="st10" cx="211.3" cy="286.3" r="3.4"/>
<circle class="st10" cx="188.2" cy="259.2" r="2.7"/>

<ellipse transform="matrix(0.7841 -0.6207 0.6207 0.7841 -110.113 160.9273)" class="st10" cx="176.2" cy="238.7" rx="3.4" ry="3.4"/>

<ellipse transform="matrix(0.7841 -0.6207 0.6207 0.7841 -109.4428 138.5858)" class="st10" cx="144.5" cy="226.6" rx="3.4" ry="3.4"/>

<ellipse transform="matrix(0.7841 -0.6207 0.6207 0.7841 -122.4205 122.0798)" class="st10" cx="114.2" cy="237" rx="3.4" ry="3.4"/>

<ellipse transform="matrix(0.7841 -0.6207 0.6207 0.7841 -137.6934 88.4617)" class="st10" cx="58.3" cy="242.1" rx="3.4" ry="3.4"/>

<ellipse transform="matrix(0.7841 -0.6207 0.6207 0.7841 -144.9272 72.4215)" class="st10" cx="31.6" cy="244.5" rx="3.4" ry="3.4"/>

<ellipse transform="matrix(0.7841 -0.6207 0.6207 0.7841 -110.9777 87.4921)" class="st10" cx="70.3" cy="203.2" rx="3.4" ry="3.4"/>

<ellipse transform="matrix(0.7841 -0.6207 0.6207 0.7841 -119.2585 70.5017)" class="st10" cx="41.7" cy="206.7" rx="3.4" ry="3.4"/>
<path class="st11" d="M107.7,204.1c0,0-29.6,2.8-21.7-17.7c1.8-6.4,10.5-19.2,29.8-20.3c0,0,37.4-2.5,40.9,26.7
c1.3,10.5-15.2,13-21.4,11.3C121,200.3,109,204.2,107.7,204.1z"/>
<g>
<path class="st10" d="M20.7,277.2c0.6-0.1,1.2-0.3,1.7-0.7c1.5-1.2,1.7-3.3,0.6-4.8c-0.7-0.8-1.6-1.2-2.6-1.3"/>
</g>
<g>
<path class="st12" d="M79,146.1C77.4,146.9,79.2,146,79,146.1"/>
<path class="st12" d="M80,143"/>
<path class="st12" d="M71.9,143"/>
<path class="st13" d="M78.8,145.9c-0.1,0.2-0.3,0.3-0.4,0.5C78.6,146.3,78.7,146.1,78.8,145.9c-1.8-1.7-4.3-2.8-7-2.9
c0,0.3-0.1,0.5,0,0.8c0-0.3,0-0.6,0-0.8c-0.1,0-0.3,0-0.4,0c-6,0-10.8,4.8-10.8,10.8s4.8,10.8,10.8,10.8c6,0,10.8-4.8,10.8-10.8
C82.2,150.7,80.9,147.9,78.8,145.9z"/>
</g>
<g>
<path class="st10" d="M60.6,267.4c-0.5-0.8-2-1.1-2.7-1.2c-2.2-0.1-3.6,1.6-3.7,3.5c-0.1,1,0.3,2,1,2.7"/>
</g>
<circle class="st13" cx="171.1" cy="154.8" r="10.8"/>
<circle class="st14" cx="146.5" cy="132.2" r="6.6"/>
<circle class="st14" cx="94.2" cy="131.5" r="6.6"/>
<polyline class="st11" points="104.7,170.3 104.7,187.9 115.4,187.9 115.4,168.2 "/>
<path class="st15" d="M112.4,169.4c0,0-4.4,0.9-4.8,1.1v14.3h4.8V169.4z"/>
<polyline class="st11" points="134.8,170.7 134.8,188.3 124.1,188.3 124.1,168.6 "/>
<path class="st15" d="M127.1,169.9c0,0,4.4,0.9,4.8,1.1v14.3h-4.8V169.9z"/>
</g>
</svg>
