<?xml version="1.0" encoding="utf-8"?><svg version="1.1" id="layer_1" xmlns="http://www.w3.org/2000/svg" xmlns:xlink="http://www.w3.org/1999/xlink" x="0px" y="0px" viewBox="0 0 263 221.4" style="enable-background:new 0 0 263 221.4;" xml:space="preserve"><style type="text/css">.st0{fill:#6CA0B6;}.st1{fill:#8EBFD4;}.st2{fill:#BBD9E5;}.st3{fill:#4B8096;}.st4{fill:#A7C6D3;}.st5{fill:#94E6EA;}.st6{opacity:0.33;fill:#D7F5F7;}.st7{fill:#DDF0F5;}.st8{fill:#9D87D2;}.st9{fill:#DCF8F9;}.st10{fill:#6A51B2;}.st11{fill:#624F9E;}.st12{fill:#C9F4F9;}.st13{fill:#1CD8D6;}.st14{fill:#84E7EC;}.st15{fill:#55656C;}.st16{fill:#67757D;}.st17{fill:#50E0E1;}.st18{fill:#4699A1;}.st19{fill:#B1D0D3;}.st20{fill:#EFFCFD;}.st21{fill:#3A4849;}.st22{fill:#DDB6ED;}.st23{fill:#C39FE5;}.st24{fill:#A888DD;}.st25{fill:#8E71D4;}.st26{fill:#735ACC;}.st27{fill:#774CC8;}.st28{fill:#7A3FC5;}.st29{fill:#7E31C1;}.st30{fill:#8223BD;}.st31{fill:#48DFDE;}.st32{opacity:0.37;fill:#6886C3;}.st33{fill:#1CD4DB;}.st34{fill:#1DDDCF;}.st35{fill:#0E727A;}</style><polygon class="st0" points="88.4,34.2 78.2,42.2 186.2,42.2 176.2,34.2 "/><polygon class="st1" points="88.4,34.2 78.2,42.2 155.5,42.2 149.8,34.2 "/><polygon class="st2" points="97.5,34.3 90.2,42.1 100.9,42.1 106.4,34.3 "/><polygon class="st3" points="100,26.6 95.3,34.2 167.9,34.2 164.4,26.6 "/><polygon class="st0" points="100,26.6 95.3,34.2 146.6,34.2 142.5,26.6 "/><polygon class="st4" points="108.2,26.6 103.2,34.2 110.4,34.2 114,26.6 "/><path class="st5" d="M163,26.6C161.3,11.7,147.9,0,131.6,0s-29.7,11.7-31.4,26.6H163z"/><g><path class="st6" d="M100.4,26.6h45.9C145.1,15,138.7,5.2,129.7,0C114.4,1,102,12.3,100.4,26.6z"/></g>
<path class="st7" d="M124.4,9.2c0.3-0.1,0.5-0.4,0.5-0.7c-0.1-1.1-0.6-3.6-3-3.3c-3.2,0.3-11.6,7.7-14.5,13.9c-1.3,2.7-3.2,7.7-3.2,7.7h6.8c0,0,3.3-7.9,5.7-10.8C116.7,15.9,120.3,10.7,124.4,9.2z"/><polygon class="st8" points="263,64 0,64 6.7,57.5 256.7,57.5 "/><path class="st9" d="M20.4,62.5h-2.6c-0.6,0-1.2-0.5-1.2-1.2v-1.2c0-0.6,0.5-1.2,1.2-1.2h2.6c0.6,0,1.2,0.5,1.2,1.2v1.2C21.5,62,21,62.5,20.4,62.5z"/>
<path class="st9" d="M70.3,62.5h-2.6c-0.6,0-1.2-0.5-1.2-1.2v-1.2c0-0.6,0.5-1.2,1.2-1.2h2.6c0.6,0,1.2,0.5,1.2,1.2v1.2C71.4,62,70.9,62.5,70.3,62.5z"/><path class="st9" d="M132.9,62.5h-2.6c-0.6,0-1.2-0.5-1.2-1.2v-1.2c0-0.6,0.5-1.2,1.2-1.2h2.6c0.6,0,1.2,0.5,1.2,1.2v1.2C134.1,62,133.6,62.5,132.9,62.5z"/><path class="st9" d="M195.7,62.5h-2.6c-0.6,0-1.2-0.5-1.2-1.2v-1.2c0-0.6,0.5-1.2,1.2-1.2h2.6c0.6,0,1.2,0.5,1.2,1.2v1.2C196.9,62,196.3,62.5,195.7,62.5z"/><path class="st9" d="M244.4,62.5h-2.6c-0.6,0-1.2-0.5-1.2-1.2v-1.2c0-0.6,0.5-1.2,1.2-1.2h2.6c0.6,0,1.2,0.5,1.2,1.2v1.2C245.6,62,245.1,62.5,244.4,62.5z"/><path class="st10" d="M43.5,62.5H41c-0.6,0-1.2-0.5-1.2-1.2v-1.2c0-0.6,0.5-1.2,1.2-1.2h2.6c0.6,0,1.2,0.5,1.2,1.2v1.2C44.7,62,44.2,62.5,43.5,62.5z"/><path class="st10" d="M100.9,62.5h-2.6c-0.6,0-1.2-0.5-1.2-1.2v-1.2c0-0.6,0.5-1.2,1.2-1.2h2.6c0.6,0,1.2,0.5,1.2,1.2v1.2C102,62,101.5,62.5,100.9,62.5z"/><path class="st10" d="M164.8,62.5h-2.6c-0.6,0-1.2-0.5-1.2-1.2v-1.2c0-0.6,0.5-1.2,1.2-1.2h2.6c0.6,0,1.2,0.5,1.2,1.2v1.2C165.9,62,165.4,62.5,164.8,62.5z"/><path class="st10" d="M222.3,62.5h-2.6c-0.6,0-1.2-0.5-1.2-1.2v-1.2c0-0.6,0.5-1.2,1.2-1.2h2.6c0.6,0,1.2,0.5,1.2,1.2v1.2C223.4,62,222.9,62.5,222.3,62.5z"/><path class="st11" d="M0,64c0,0,2.4,5.1,9.5,4.5l245.5,0c0,0,5.5-0.9,8-4.6L0,64z"/><polygon class="st3" points="92.5,68.5 100.9,79.4 163.6,79.4 169.5,68.5 "/><polygon class="st0" points="92.6,68.5 100.9,79.4 144.5,79.4 148.6,68.5 "/><polygon class="st12" points="100.9,79.4 46.1,204.4 216.6,203.1 163.6,79.4 "/><path class="st13" d="M103.2,79.4c1.9,6.2,13.9,11,28.4,11c14.5,0,26.5-4.8,28.4-11H103.2z"/><ellipse class="st14" cx="131.8" cy="205.5" rx="85.9" ry="15.9"/><g><path class="st15" d="M120.3,168.5l-20.8-15c-2.8-2-3.3-6-1.1-8.4l34.7-36.4c2.9-3,7.7-3.4,11.4-0.8l22.4,15.6	c2.4,1.6,2.8,4.9,0.9,6.8L129.8,168C127.4,170.5,123.4,170.7,120.3,168.5z"/><path class="st16" d="M119.3,164l-18.7-13.2c-2.5-1.8-2.9-5.4-0.7-7.7l33.1-34.8c2.8-2.9,7.2-3.4,10.5-1.2l20.1,13.7	c2.1,1.4,2.4,4.4,0.6,6.3L128,163.2C125.7,165.6,122,165.9,119.3,164z"/><polygon class="st17" points="130.1,158 105.2,142.1 135.9,110.2 159.8,126.3 	"/><path class="st18" d="M122,144.6l-0.3-0.3c-1.7-1.7-1.7-4.5,0-6.2l0.6-0.6c1.7-1.7,4.5-1.7,6.2,0l0.3,0.3c1.7,1.7,1.7,4.5,0,6.2	l-0.6,0.6C126.5,146.3,123.7,146.3,122,144.6z"/><polygon class="st19" points="115.1,157.4 109.4,153.6 112.8,150.1 118.7,153.7 	"/><path class="st20" d="M142.1,125.6c-0.5-1.2-2.1-1.3-2.9-0.3c-2.2,3-7.8,9-13.9,2.2c-7.7-8.7,0.5-14.2,4.6-17.2	c1.7-1.2,10.3,6.7,10.3,6.7s1.5,1.2,1.8,3.1c0.1,0.6,0.4,1.1,0.9,1.3c0.6,0.3,1.4,0.8,1.9,1.6c0.3,0.5,0.9,0.8,1.5,0.8	c1.3-0.1,3.3,0.1,4.8,1.8l5.9,4.6c0.1,0.1,0.2,0.1,0.2,0.2c0.5,0.6,2.4,3.1-0.1,6.4l-4.6,5.1c-0.1,0.1-0.1,0.1-0.2,0.2	c-0.7,0.5-4.5,3.2-8.8,0.7c-6.2-4.2-6.7-12-2.9-14.7C142.1,127.2,142.4,126.3,142.1,125.6z"/><g>	<path class="st17" d="M130.4,114.4c-1.9,1.4-6.9,5.6-4.2,9.9c0,0,4.8,6,10,0.6c4.1-3.8,1.6-5.6,1.6-5.6l-6-4.8		C131.3,114.1,130.8,114.1,130.4,114.4z"/><path class="st12" d="M131.7,114.4c-0.4-0.3-1-0.3-1.4,0c-1,0.7-2.9,2.2-4,4.1c2.7-0.9,4.6-1.8,7.1-2.7L131.7,114.4z"/>	<path class="st12" d="M137.8,119.2l-1.2-0.9c-3.8,1.6-7.1,3-10.9,4.8c0.1,0.2,0.4,0.9,0.6,1.2c0,0,0.4,0.5,0.8,0.8		c3.8-1.5,7.3-3.4,11.1-5.6C137.9,119.3,137.8,119.2,137.8,119.2z"/>	<path class="st12" d="M136.2,124.8c1.3-1.2,1.9-2.2,2.2-3c-3.4,1.6-6.4,2.9-9.4,4.6C130.9,127.4,133.5,127.6,136.2,124.8z"/></g><path class="st17" d="M146.6,127.3c-1.9,1.4-6.9,5.6-4.2,9.9c0,0,4.8,6,10,0.6c4.1-3.8,1.6-5.6,1.6-5.6l-6-4.8	C147.6,127,147,127,146.6,127.3z"/><g>	<path class="st12" d="M148,127.3c-0.4-0.3-1-0.3-1.4,0c-1,0.7-2.9,2.2-4,4.1c2.7-0.9,4.6-1.8,7.1-2.7L148,127.3z"/>	<path class="st12" d="M154,132.1l-1.2-0.9c-3.8,1.6-7.1,3-10.9,4.8c0.1,0.2,0.4,0.9,0.6,1.2c0,0,0.4,0.5,0.8,0.8		c3.8-1.5,7.3-3.4,11.1-5.6C154.2,132.2,154,132.1,154,132.1z"/>	<path class="st12" d="M152.5,137.7c1.3-1.2,1.9-2.2,2.2-3c-3.4,1.6-6.4,2.9-9.4,4.6C147.2,140.3,149.8,140.5,152.5,137.7z"/></g><polygon class="st19" points="153.9,119.8 145.7,114.4 147,112.9 155.2,118.3 	"/><path class="st21" d="M115,160.8c-0.3-0.2-0.8-0.2-1.1,0.1c-2,2-8.7,9.8-2.3,17.6c1.1,1.2,3.2,0.4,3.6-0.7c0.1-0.2,0-0.5-0.1-0.7	c-0.8-1.3-4.1-7.7,1.8-13.8c0.4-0.4,0.3-1-0.1-1.3L115,160.8z"/><path class="st21" d="M102.9,152.4c-0.3-0.2-0.8-0.2-1.1,0.1c-2,2-8.7,9.8-2.3,17.6c1.1,1.2,3.2,0.4,3.6-0.7c0.1-0.2,0-0.5-0.1-0.7	c-0.8-1.3-4.1-7.7,1.8-13.8c0.4-0.4,0.3-1-0.1-1.3L102.9,152.4z"/><path class="st21" d="M146,146.8c-0.2-0.3-0.5-0.5-0.7-0.6l-3,2.7c0,0,0,0,0,0c3.7,5.7,4.5,14,4.7,16.2c0,0.4,0.2,0.8,0.4,1.1	c0.8,0.8,3.1,0.8,3.8-0.2c0.2-0.3,0.3-0.7,0.3-1.1C150.9,154.9,147.9,149.4,146,146.8z"/>
</g><path class="st5" d="M160.2,149.9c-0.7-0.7-1.2-1.4-1.4-1.9l0,0l0,0l0,0l0,0c-0.2,0.5-0.7,1.2-1.4,1.9c-0.6,0.6-1.2,1-1.7,1.2l0,0c0.5,0.2,1.2,0.7,1.9,1.4c0.6,0.6,1,1.2,1.2,1.7l0,0l0,0c0.2-0.5,0.6-1.1,1.2-1.7c0.7-0.7,1.4-1.2,1.9-1.4l0,0C161.3,150.8,160.7,150.4,160.2,149.9z"/><path class="st5" d="M140.1,170.2c-0.9-0.9-1.6-1.8-1.9-2.5l0,0l0,0l0,0l0,0c-0.2,0.7-0.9,1.6-1.9,2.5c-0.8,0.7-1.6,1.3-2.2,1.6l0,0c0.7,0.2,1.6,0.9,2.5,1.9c0.7,0.8,1.3,1.6,1.6,2.2l0,0l0,0c0.3-0.7,0.8-1.5,1.6-2.2c0.9-0.9,1.8-1.6,2.5-1.9l0,0C141.6,171.5,140.8,171,140.1,170.2z"/><path class="st5" d="M100.7,134.1c-0.5-0.5-0.9-1.1-1.1-1.5l0,0l0,0l0,0l0,0c-0.1,0.4-0.5,0.9-1.1,1.5c-0.4,0.4-0.9,0.7-1.3,0.9l0,0c0.4,0.1,0.9,0.5,1.5,1.1c0.4,0.4,0.7,0.9,0.9,1.3l0,0l0,0c0.2-0.4,0.5-0.8,0.9-1.3c0.5-0.5,1.1-0.9,1.5-1.1l0,0C101.6,134.8,101.1,134.5,100.7,134.1z"/><path class="st5" d="M113.9,112.8c-1-0.9-1.6-1.9-1.9-2.6l0,0l0,0l0,0l0,0c-0.2,0.7-0.9,1.7-1.9,2.6c-0.8,0.7-1.6,1.3-2.2,1.6l0,0c0.7,0.2,1.7,0.9,2.6,1.9c0.7,0.8,1.3,1.6,1.6,2.3l0,0l0,0c0.3-0.7,0.8-1.5,1.6-2.3c0.9-0.9,1.9-1.6,2.6-1.9l0,0C115.5,114.1,114.7,113.5,113.9,112.8z"/><g><polygon class="st22" points="77.2,41.9 6.5,57.5 67.8,57.5 90.6,41.9"/><polygon class="st23" points="88.7,41.8 34.5,57.5 85.8,57.5 101.5,41.8"/><polygon class="st24" points="100.1,41.7 62.5,57.5 103.7,57.5 112.5,41.7 	"/><polygon class="st25" points="111.6,41.6 90.5,57.5 121.7,57.5 123.5,41.6"/><polygon class="st26" points="120.5,41.5 116,57.5 137.1,57.5 131.9,41.5"/><polygon class="st27" points="131,41.5 137,57.5 165.3,57.5 143.8,41.5 	"/><polygon class="st28" points="143.8,41.5 160.3,57.5 195.8,57.5 158,41.5"/><polygon class="st29" points="156.7,41.5 183.7,57.5 226.2,57.5 172.2,41.5 	"/><polygon class="st30" points="169.5,41.5 207,57.5 256.7,57.5 186.5,41.5 	"/></g><path class="st31" d="M139.5,194.7l-1.4,0.5l-8.4,2.7c0,0-4.1-3.7-5.9,1.4l-7.9,2.2c0,0-3.2,0.8-2.1,2.3s1.9,1.2,1.9,1.2s-2.7,2.9,1.5,3.8c0.7,0.3,1.9-1.1,1.9-1.1s1.5,0.5,0.5,1.7s0.7,4.8,4.2,2.1c0,0,2.8,2.4,6.8,0.3l6.3-1.9c0,0,0,4.1,3.9,2.2c0.8-0.4,0.7-3.8,0.7-3.8l10.8-3.4c0,0,3-0.3,1.3-2.4l-11.4-7.3C142,195.2,141.1,194.2,139.5,194.7z"/><circle class="st32" cx="19.1" cy="60.8" r="7.8"/><circle class="st32" cx="69.1" cy="60.8" r="7.8"/><circle class="st32" cx="131.7" cy="60.8" r="7.8"/><circle class="st32" cx="194" cy="60.8" r="7.8"/><circle class="st32" cx="243.2" cy="60.8" r="7.8"/><g><path class="st33" d="M130.3,19c0,0,0.6,4-2.7,4.2s-6.1-1.9-6.9-3.6s0.5-3.3,0.5-3.3s0.8-0.5,0-1.5c-0.7-0.9-0.3-1.1,0.5-2.4	c1.7-2.2-0.1-2.9-0.9-2c0,0-1.2,1.9-1,2.8s-0.4-2.6-1.9-3c-1.2-0.3-0.4,2.4,0,3.7c0.1,0.4-0.1,0.8-0.4,0.9	c-0.7,0.2-1.6,0.6-1.4,1.4c0.1,0.5,0.1,2.6,2.5,2.9c0,0,1.9,4.8,5.8,6.6c0.6,0.3,2,1,2.9,1c4.8,0.1,10.7,0,10.7,0s-1.7-2.8-3-3.8	c-0.5-0.4-0.9-0.8-1.1-1.4c-0.3-1.1-0.7-2.5-0.7-2.5S131.2,19.8,130.3,19z"/><path class="st34" d="M137.9,11.7c-0.8,4.2-3.8,7.8-6.3,8c-1.9,0.1-5.4-3.6-6.3-8c-0.9-4.3,2.8-8,6.3-8S138.7,7.4,137.9,11.7z"/><path class="st35" d="M130,10c1.2,1.2,1.2,3.1,0.9,3.4c-0.4,0.4-2.2,0.3-3.4-0.9s-1.3-3.1-0.9-3.4C126.8,8.8,128.8,8.8,130,10z"/><path class="st35" d="M136,12.4c-1.1,1.3-3,1.5-3.3,1.2c-0.4-0.3-0.5-2.2,0.6-3.5s2.9-1.5,3.3-1.2C136.9,9.2,137.1,11.1,136,12.4z"/></g></svg>
