<?xml version="1.0" encoding="utf-8"?>
<svg version="1.1" id="layer" xmlns="http://www.w3.org/2000/svg" xmlns:xlink="http://www.w3.org/1999/xlink" x="0px" y="0px"
	 viewBox="0 0 231.3 390.5" style="enable-background:new 0 0 231.3 390.5;" xml:space="preserve">
<style type="text/css">
	.st0{fill-rule:evenodd;clip-rule:evenodd;fill:#004E96;}
	.st1{fill-rule:evenodd;clip-rule:evenodd;fill:#FFFFFF;}
</style>
<g>
	<g id="a">
		<g>
			<path class="st0" d="M224.3,248.5c0,0,11.8-15.8-3-31c-14.8-15.2-35-3-36,3c0,0-5-2.2-13-2c-8,0.2-53,0-53,0s-13.6-3.6-14-15
				v-110c0,0-3-16.4-12-24c0,0,41-32.3,10-66c-6.7-7.3-17.4-3-19,10c-1.6,13-7,32-7,32s-9.2-13.4-19-3c0,0-14.4-13.4-19,8
				c0,0-8.3-19-13-37c-4.2-16-22.4-8.7-25,2c-7.2,30.2,19,54,19,54s-10.6,7.4-12,26c-1.4,18.6-1,184-1,184s2,20.6,13,31v49
				c0,0-7.6,12.6-2,19c5.6,6.4,24,5,34-14v-31l6,1v34c0,0-12.6,22,4,22c15,0,25-10.6,27-16l1-39h51v25c0,0-9.8,17.6,0,21
				c9.8,3.4,27.6-4.4,32-17v-29l6-1v34c0,0-10.6,17.2,1,21c11.6,3.8,28-8,30-16v-53C210.3,320.5,246.1,290.3,224.3,248.5z"/>
		</g>
	</g>
	<g id="b">
		<g>
			<path class="st1" d="M28.3,319.5c0,0-0.7,40.9,0,43c0.7,2.1,2,2,2,2h12c1.8-0.2,3-2,3-2l-1-33C38.2,327.3,28.3,319.5,28.3,319.5z
				 M214.3,247.5c0,0,14.3-12.5,3-24c-17.2-17.6-29,6-29,6c-4.8-2.5-15-3-15-3l-51-1c-22.8-1-24-22-24-22s0-87.2,0-106
				c0-19.3-16-29-16-29c30.2-21.8,26.8-44,20-55c-6.7-11-11,0-11,0c-2.3,31-16,51-16,51c-5.7-4-10-4-10-4s7.7-12.3,2-15
				c-7.7-3.7-9,11-9,11s-4.3-14-9-11c-6.1,3.9,2,15,2,15c-4,0.2-13,3-13,3c-9.8-9-18-46-18-46s-0.8-5.7-4-6c-3.3-0.2-9.3,3.3-9,16
				c0.5,24.8,24,41,24,41c-10,4-16,26-16,26v182c3.3,47.5,51,52,51,52s-0.8,39.7,0,41c0.7,1.2,2,3,2,3h12c2-0.8,2-2,2-2v-42h90
				c7.8-0.8,14-3,14-3v45l2,2c0,0,12.3,0.2,13,0c0.7-0.3,2-3,2-3v-53C241.8,280.3,214.3,247.5,214.3,247.5z M148.3,361.5
				c0,2,2,3,2,3s11.8-0.3,13,0c1.2,0.3,2-2,2-2v-27h-17C148.3,335.5,148.3,359.6,148.3,361.5z"/>
		</g>
	</g>
	<g id="c">
		<g>
			<path class="st0" d="M39.3,91.5c0-0.9-0.2-1.7-0.5-2.4c-0.5,0.9-1.5,1.4-2.5,1.4c-1.7,0-3-1.3-3-3c0-1.1,0.6-2,1.4-2.5
				c-0.8-0.3-1.6-0.5-2.4-0.5c-3.9,0-7,3.1-7,7c0,3.9,3.1,7,7,7C36.1,98.5,39.3,95.4,39.3,91.5z M72.3,112.5c-5.1,9.9-13,5-13,5v-10
				c0,0,9.1-2.5,8-6c-1.4-4.4-11-3-11-3s-10.9-1.3-11,3c-0.1,4.3,9,6,9,6v10c-6.8,5.3-13-3-13-3s-0.9-3.6-3-3c-2.4,0.6-1,4-1,4
				s5,13.4,19,13c14-0.4,19.1-11.6,20-14C77.1,112.1,74.6,107.9,72.3,112.5z M87.8,89.1c-0.5,0.9-1.5,1.4-2.5,1.4c-1.7,0-3-1.3-3-3
				c0-1.1,0.6-2,1.4-2.5c-0.8-0.3-1.6-0.5-2.4-0.5c-3.9,0-7,3.1-7,7c0,3.9,3.1,7,7,7c3.9,0,7-3.1,7-7C88.3,90.7,88.1,89.9,87.8,89.1
				z"/>
		</g>
	</g>
</g>
</svg>
