<?xml version="1.0" encoding="utf-8"?><svg version="1.1" id="layer1" xmlns="http://www.w3.org/2000/svg" xmlns:xlink="http://www.w3.org/1999/xlink" x="0px" y="0px" viewBox="0 0 262.8 196.8" style="enable-background:new 0 0 262.8 196.8;" xml:space="preserve"><style type="text/css">.st0{fill:#F1F7FB;}.st1{fill:#E4EEF7;}.st2{fill:#FFFFFF;}.st3{opacity:0.25;fill-rule:evenodd;clip-rule:evenodd;fill:#ABD5EF;}.st4{fill:none;stroke:#4E89AF;stroke-width:2;stroke-miterlimit:10;}.st5{fill:#DDEAF4;}.st6{fill:none;stroke:#231815;stroke-miterlimit:10;}.st7{fill:#FFFFFF;stroke:#4E89AF;stroke-width:2;stroke-miterlimit:10;}.st8{fill:#4E89AF;}.st9{fill:#EEF5FA;}.st10{fill:#DDEAF4;stroke:#4E89AF;stroke-width:2;stroke-miterlimit:10;}.st11{fill:#D4E5F1;}.st12{fill:none;stroke:#D4E5F1;stroke-width:2;stroke-miterlimit:10;}.st13{fill:#F1F7FB;stroke:#4E89AF;stroke-width:2;stroke-miterlimit:10;}.st14{fill:none;stroke:#DDEAF4;stroke-width:2;stroke-miterlimit:10;}.st15{fill:none;stroke:#E5F0F8;stroke-width:7;stroke-miterlimit:10;}</style><path class="st0" d="M57.9,77.2c0,0-30.6,34.5-7.7,78l0.5,0.8l1.6-1.2l1.9-0.1l1.9,0.5c0,0,2,1.3,2.1,1.4s2.2,1.2,2.2,1.2s1.8,1.2,2.1,1.1s0.2,0.5,0.7,0.3s0.8-0.2,0.9-0.2s0.5-0.4,0.8-0.5s0.7-0.6,0.9-0.7s2.9-1.6,2.9-1.6l1.9,0l2.6-1.2l3.7,1.3l2.6,2.3l2.6-0.4l2.5-0.6l1.5-0.6l3-1.3c0,0,1.4-0.3,1.6,0s2.2-0.1,2.3-0.1s2.5,1.4,2.5,1.4l2.7,1.6c0,0,1.4,0.4,1.7,0.2s1.4-0.2,1.5-0.3c0.1-0.1,1.9-0.6,2-0.5s3-1,3-1l1.6-1.2l2.9-0.4c0,0,1.7,0.1,1.9,0.2c0.2,0,0.9,1.1,1.2,0.9s0.8,0.9,0.9,0.7c0.2-0.1,0.4,0.7,0.6,0.5s0.8,1.2,1,1.1c0.2-0.1,2.5,0.3,2.5,0.3s2.2-0.5,2.4-0.5c0.2,0,3.2-1.5,3.2-1.5l3-1.4l4.1,0.3l2.7,0.4l-36.3-28.5c0,0-5.5-6.2-6.2-15.8c-0.7-9.7-3.4-15.1-11.8-19.2l-8.7-6.3l-9.7-7.1L57.9,77.2z"/><polygon class="st1" points="98.1,127.5 77.9,157.1 81.9,158.9 86.3,153.4 100.9,130.6 "/><path class="st0" d="M149.1,154.4l0.3,0.5l1.7,1.1l2.3,1l1.9,1.4l3,0.2l1.9-0.5l1.6,0.2l2.4-2l2-0.8h1.9l2.2,0l2.1,1.4l2.7,1.4l2,0.3l2,0.6l2.1-1.4l2.1-1.6c0,0,4.9-1.7,9.5,1.2l24.7-36.6l-30.3-23.1"/><polygon class="st1" points="201.2,108.5 169.8,154.3 172.9,157 177.5,158.6 180.2,157.6 183.6,155.9 187.7,155 190.3,156.4 193.1,156.8 217.4,120.7 "/><polygon class="st2" points="122.8,92.5 92.7,112.2 93.7,120.2 99.8,128.8 133.4,155.6 136.8,158.1 140,158.1 143.9,156.7 149.2,153.4 152.6,147.8 169.2,123.7 "/><path class="st3" d="M196.4,151.1c-1.6-0.8-2.3-2.1-4.1-2.9c-5.1-2.2-10.4,1.3-12.5,3.6c-4-0.2-4.7-2.9-7.6-4c-4.7-1.7-9.4,1.3-11.5,3.6c-5.5-0.1-6.7-5.7-13.2-4c-2.4,0.6-6.4,5.1-9,4c-1.3-0.5-2.5-2.6-3.8-3.3c-5-2.6-10.9,0.7-13.2,3.3c-4.4-0.2-5.7-3.4-9.7-4.3c-5-1.1-7,3.6-10.1,4.3c-2.2,0.5-6.1-3.7-8.7-4.3c-5.3-1.4-7.2,3-10.1,4c-3.3,1.1-5.2-2.4-6.9-3.3c-4.7-2.4-10.5,0.5-12.5,3.3c-4.2-0.2-4.5-2.4-7.3-3.6c-3-1.3-6.1-0.6-8.6,0.7l3.1,6.3c0.1,0,0.2-0.1,0.3-0.1c3.5-1.2,5.9,2.4,8,3.3c4.9,1.9,9.3-0.9,11.4-3.3c4.1,0.1,5.2,1.3,6.8,3.2c3.8,4.4,10.4-0.5,13-3.2c3.8,0.2,4.3,2.5,6.9,3.6c5,2.2,10.1-1.1,12.9-3.6c3.2,0.4,3.9,2.6,6.3,3.6c4.9,2.2,10.1-0.6,12.5-3.3c4.2,0.1,4.8,2.4,7.6,3.6c4.6,1.9,9.7-2.1,11.9-3.5c5.4,0.2,7.2,7.3,13.8,3.9c2.8-1.4,4.6-4.8,7.6-4c1.9,0.5,3.1,2.8,4.9,3.6c4.5,2,9.1-2.7,12.2-3.3c2.5-0.1,3.9,0.9,5.4,1.9L196.4,151.1z"/><path class="st4" d="M135.9,158.1c0,0-34.1-27.4-38.2-30.9s-5.6-15.6-5.6-15.6s-1.9-9.8-2.2-10.8c-0.1-0.2-0.2-0.5-0.3-0.7c-0.5-1.1-1.3-2.1-2.3-2.8L61.9,78.7c-3.5-2.7-4.2-2-6.1,0.7c0,0-28.4,37.1-4.8,75.7"/><polygon class="st5" points="175.5,115.8 166.7,129.1 196.9,151 206.1,137.5 "/><path class="st6" d="M292.8,81.9"/><path class="st4" d="M147.9,155.3l39.9-57.5c0.2-0.3,0.6-0.4,0.9-0.1l28.7,21.7c0.3,0.2,0.3,0.6,0.1,0.9l-25.2,37.1"/><line class="st4" x1="101.5" y1="130" x2="82.3" y2="158.3"/><ellipse class="st7" cx="67.4" cy="111.7" rx="6.3" ry="6.5"/><path class="st4" d="M168.9,124.7c0.1-0.8-1.5-2.3-1.5-2.3l-42-28.9c-2.5-2-4.9-0.4-4.9-0.4L92,112.7"/><ellipse class="st8" cx="101.5" cy="136.7" rx="1.6" ry="1.7"/><ellipse class="st8" cx="96.7" cy="144" rx="1.6" ry="1.7"/><ellipse class="st8" cx="92.7" cy="149.6" rx="1.6" ry="1.7"/><ellipse class="st9" cx="180.7" cy="52.2" rx="28.8" ry="30"/><path class="st10" d="M129.7,108.8l-15.6-11.2l-11.7,8.3l19.8,14.2c2.7,1.9,6.4,1.2,8.2-1.6l0.8-1.2C133.1,114.5,132.4,110.7,129.7,108.8z"/><polygon class="st2" points="115.4,99.8 115.4,114 120.9,117.9 120.9,103.7 "/><ellipse class="st10" cx="141.3" cy="124.7" rx="7" ry="7.3"/><polygon class="st11" points="198.9,78.9 193.8,75.8 193.7,69.6 198.8,66.5 204,69.6 204,75.8 "/><ellipse class="st11" cx="232.8" cy="77" rx="3" ry="3.1"/><polygon class="st11" points="199.9,95.9 199.9,102.4 205.3,99.2 "/><ellipse class="st12" cx="223.5" cy="95.9" rx="4.2" ry="4.4"/><path class="st11" d="M218.4,75.8h-1.7v-1.7c0-0.5-0.4-1-1-1c-0.5,0-1,0.5-1,1v1.7h-2c-0.5,0-1,0.5-1,1s0.4,1,1,1h2v2.1c0,0.6,0.4,1,1,1c0.5,0,1-0.4,1-1v-2.1h1.7c0.5,0,1-0.5,1-1S218.9,75.8,218.4,75.8z"/><polygon class="st11" points="215.5,39.5 214.5,41.2 212.8,42.5 214.5,43.7 215.5,45.4 216.7,43.9 218.4,42.5 216.6,41.3 "/><path class="st8" d="M89.3,51.9c0-0.9-0.7-1.6-1.6-1.6c-0.9,0-1.6,0.7-1.6,1.6c0,0.2,0.1,0.4,0.1,0.6l-20.5,29l1.5,1.1l20.7-29.3C88.7,53.3,89.3,52.7,89.3,51.9z"/><path class="st13" d="M93.4,77.6L78,66c-0.8-0.6-1-1.8-0.4-2.7l5.3-7.7c0.6-0.9,1.8-1.1,2.6-0.4l15.4,11.5c0.4,0.3,1,1,0.2,1.3l-6.7,1.2c-0.5,0.1-0.9,0.6-0.8,1.2l1,6.9C94.8,78.7,93.7,77.9,93.4,77.6z"/><path class="st14" d="M70.9,176.9L70.9,176.9c-1.8,0-3.3-1.5-3.3-3.3v-0.3c0-1.8,1.5-3.3,3.3-3.3h0c1.8,0,3.3,1.5,3.3,3.3v0.3C74.2,175.4,72.7,176.9,70.9,176.9z"/><ellipse class="st8" cx="44.7" cy="190" rx="2.2" ry="2.3"/><ellipse class="st8" cx="89.3" cy="185.1" rx="2.2" ry="2.3"/><ellipse class="st8" cx="31.5" cy="154.5" rx="1.5" ry="1.6"/><path class="st8" d="M153.2,196.6h-30.5c-0.7,0-1.4-0.6-1.4-1.4v-0.1c0-0.7,0.6-1.4,1.4-1.4h30.5c0.7,0,1.4,0.6,1.4,1.4v0.1C154.5,196,153.9,196.6,153.2,196.6z"/><path class="st8" d="M206.6,173.5H202c-0.7,0-1.4-0.6-1.4-1.4V172c0-0.7,0.6-1.4,1.4-1.4h4.6c0.7,0,1.4,0.6,1.4,1.4v0.1C207.9,172.9,207.3,173.5,206.6,173.5z"/><path class="st8" d="M231.1,156.8h-3.5c-0.7,0-1.4-0.6-1.4-1.4v-0.1c0-0.7,0.6-1.4,1.4-1.4h3.5c0.7,0,1.4,0.6,1.4,1.4v0.1C232.4,156.2,231.8,156.8,231.1,156.8z"/><path class="st8" d="M188.7,173.5h-41.2c-0.7,0-1.4-0.6-1.4-1.4V172c0-0.7,0.6-1.4,1.4-1.4h41.2c0.7,0,1.4,0.6,1.4,1.4v0.1C190.1,172.9,189.5,173.5,188.7,173.5z"/><path class="st8" d="M140,173.5h-25.8c-0.7,0-1.4-0.6-1.4-1.4V172c0-0.7,0.6-1.4,1.4-1.4H140c0.7,0,1.4,0.6,1.4,1.4v0.1C141.3,172.9,140.7,173.5,140,173.5z"/><path class="st8" d="M101.1,173.5h-4.6c-0.7,0-1.4-0.6-1.4-1.4V172c0-0.7,0.6-1.4,1.4-1.4h4.6c0.7,0,1.4,0.6,1.4,1.4v0.1C102.4,172.9,101.8,173.5,101.1,173.5z"/><ellipse class="st8" cx="160.1" cy="195.1" rx="1.6" ry="1.7"/><path class="st2" d="M124.5,106.3l1.6,1.1l0,12.7c0,0-1.1,0.1-1.6-0.1C124,119.8,124.5,106.3,124.5,106.3z"/><path class="st2" d="M139.2,118.9v7.7c0,0.4,0.3,0.8,0.8,0.8h0.2c0.4,0,0.8-0.4,0.8-0.8v-7.8c0-0.1,0-0.2-0.1-0.3C140.2,118.6,139.6,118.7,139.2,118.9z"/><path class="st2" d="M144,130.3V124c0-0.4-0.3-0.8-0.8-0.8H143c-0.4,0-0.8,0.4-0.8,0.8v6.9C143,130.8,143.5,130.6,144,130.3z"/><path class="st10" d="M164.1,131.6c-1.2-2.3-3.5-3.9-6.2-3.9c-3.8,0-7,3.2-7,7.3c0,3.6,2.5,6.6,5.8,7.1L164.1,131.6z"/><path class="st2" d="M157.3,128.8c0,0,0.8-0.1,1.7,0.1v8.4l-1.7,2.4V128.8z"/><polyline class="st4" points="176,115 166.7,128.8 196.3,150.5 167.1,128.9 "/><polyline class="st4" points="205.4,137.4 176.3,115.8 205.4,137.8 "/><g><path class="st15" d="M-nan-nan"/></g><g><path class="st4" d="M34.8,154.3c4.7,0,4.7,4.1,9.4,4.1c4.7,0,4.8-4,9.5-4c4.7,0,4.7,4.1,9.5,4.1c4.7,0,4.8-4,9.5-4	c4.7,0,4.7,4.1,9.5,4.1c4.7,0,4.8-4,9.5-4c4.7,0,4.7,4.1,9.5,4.1c4.7,0,4.8-4,9.5-4c4.7,0,4.7,4.1,9.5,4.1c4.7,0,4.8-4,9.5-4	c4.7,0,4.7,4.1,9.5,4.1c4.7,0,4.8-4,9.5-4c4.7,0,4.7,4.1,9.5,4.1c4.7,0,4.8-4,9.5-4c4.7,0,4.7,4.1,9.5,4.1c4.7,0,4.8-4,9.5-4	c4.7,0,4.7,4.1,9.5,4.1c4.7,0,4.8-4,9.5-4c4.7,0,4.7,4.1,9.5,4.1s4.8-4,9.5-4"/></g></svg>