<?xml version="1.0" encoding="utf-8"?><svg version="1.1" id="图层_1" xmlns="http://www.w3.org/2000/svg" xmlns:xlink="http://www.w3.org/1999/xlink" x="0px" y="0px"
	 viewBox="0 0 167.2 208" style="enable-background:new 0 0 167.2 208;" xml:space="preserve">
<style type="text/css">
	.st0{fill:#FDE6C3;stroke:#F7AB33;stroke-width:2;stroke-miterlimit:10;}
	.st1{fill:#FCF6E1;stroke:#F7AB33;stroke-width:2;stroke-miterlimit:10;}
	.st2{fill:#FDD499;}
	.st3{fill:#FCF6E1;}
	.st4{fill:#FCE9C7;}
	.st5{fill:#FFFFFF;stroke:#F7AB33;stroke-width:2;stroke-miterlimit:10;}
	.st6{fill:#F7AB33;}
	.st7{fill:none;stroke:#FDE6C2;stroke-width:2;stroke-miterlimit:10;}
	.st8{fill:none;stroke:#FBD599;stroke-width:2;stroke-miterlimit:10;}
	.st9{fill:#FBD599;}
	.st10{fill:#FBEECE;}
	.st11{fill:none;stroke:#F7AB33;stroke-width:2;stroke-miterlimit:10;}
	.st12{fill:#FDE6C3;}
	.st13{opacity:0.63;fill:#FCF6E1;}
	.st14{fill:none;stroke:#FDE6C3;stroke-width:2;stroke-miterlimit:10;}
	.st15{fill:#FBE6BF;}
</style><path class="st0" d="M114,33H84.5c-0.4,0-0.7,0.3-0.7,0.7v4.8c0,0.9-0.7,1.6-1.6,1.6H22.4c-0.3,0-0.6,0.3-0.6,0.6v45
	c0,0.3,0.3,0.6,0.6,0.6h91.8c0.3,0,0.6-0.3,0.6-0.6V45.8v-5.3v-6.9C114.7,33.3,114.4,33,114,33z"/><path class="st1" d="M114.3,109.8H31.8c-12.5,0-22.6-10.1-22.6-22.6V55.8c0-1.2,1-2.3,2.3-2.3h102.8c0.2,0,0.4,0.2,0.4,0.4v55.4
	C114.7,109.6,114.5,109.8,114.3,109.8z"/><path class="st2" d="M110.2,40.4H88.1c-0.5,0-0.9-0.4-0.9-0.9l0,0c0-0.5,0.4-0.9,0.9-0.9h22.1c0.5,0,0.9,0.4,0.9,0.9l0,0
	C111.2,40,110.7,40.4,110.2,40.4z"/><circle class="st3" cx="95.8" cy="86.1" r="31"/>
<path class="st4" d="M15.1,100.8c0,0,4.7,6.2,12.7,7.7c3.2,0.6,35.2,0.3,35.2,0.3s-3.4-4.9-4.6-8H15.1z"/>
<path class="st5" d="M163.8,154l-13.8,12.2L123.3,136c-0.5-0.5-0.4-1.3,0.1-1.8l11.9-10.6c0.5-0.5,1.3-0.4,1.8,0.1L163.8,154z"/><path class="st6" d="M154.5,155.2l-15.8-17.9c-0.3-0.3-0.3-0.9,0.1-1.2l0.2-0.1c0.3-0.3,0.9-0.3,1.2,0.1l15.8,17.9
	c0.3,0.3,0.3,0.9-0.1,1.2l-0.2,0.1C155.4,155.5,154.8,155.5,154.5,155.2z"/><path class="st6" d="M150.4,158.8l-15.6-17.7c-0.3-0.3-0.3-0.9,0.1-1.2l0.2-0.1c0.3-0.3,0.9-0.3,1.2,0.1l15.6,17.7
	c0.3,0.3,0.3,0.9-0.1,1.2l-0.2,0.1C151.2,159.1,150.7,159.1,150.4,158.8z"/><line class="st5" x1="127.2" y1="138.8" x2="139.6" y2="128"/><line class="st7" x1="128.5" y1="140.3" x2="140.9" y2="129.5"/><path class="st5" d="M150,166.1C150,166.1,150,166.2,150,166.1c3.4,3.8,9.2,4.2,12.9,0.8h0c3.7-3.4,4.5-9.6,0.9-12.9
	C163.8,154,150,166.1,150,166.1z"/><line class="st5" x1="126.7" y1="130.5" x2="117.9" y2="120.8"/><line class="st5" x1="131.5" y1="126.5" x2="122.5" y2="116.7"/><path class="st8" d="M119.4,121.1"/><path class="st8" d="M122.8,118.4"/><polygon class="st9" points="118.9,120.4 120,121.6 123.3,119 122.2,117.7 "/><rect x="80.9" y="96.8" class="st10" width="40.2" height="11.8"/><path class="st5" d="M119.3,104.8H82.7c-0.4,0-0.8-0.3-0.8-0.8V65.6c0-0.4,0.3-0.8,0.8-0.8h36.7c0.4,0,0.8,0.3,0.8,0.8v38.4
	C120.1,104.5,119.7,104.8,119.3,104.8z"/><path class="st11" d="M125.1,88.8h-12.4c-1.2,0-2.2-1-2.2-2.2l0,0c0-1.2,1-2.2,2.2-2.2h12.4c1.2,0,2.2,1,2.2,2.2l0,0
	C127.3,87.8,126.3,88.8,125.1,88.8z"/><path class="st12" d="M99.7,95.7h-1.5c-0.5,0-0.9-0.4-0.9-0.9v-1.7c0-0.5,0.4-0.9,0.9-0.9h1.5c0.5,0,0.9,0.4,0.9,0.9v1.7
	C100.6,95.3,100.2,95.7,99.7,95.7z"/><path class="st12" d="M97.5,74.2c0,0-4.4,0.8-2.6,3.2c0.7,0.8,0.5,1.3,3.6,0.1c1.4-0.4,4.8,1,3,4.1c-0.4,0.5-1.9,2-2.1,2.2
	c-0.2,0.1-3.3,2.4-2,5.5c0.2,0.4,2.2,0.4,2.8,0.2s0.6-0.7,0.7-1.5c0.1-0.8,2.1-2.9,2.1-2.9s4.4-3.1,2.8-7.4S98.9,73.8,97.5,74.2z"/><ellipse class="st6" cx="123.4" cy="80.8" rx="1" ry="0.9"/><polygon class="st13" points="12,36.5 6.2,40.1 0.2,36.9 0,30.2 5.8,26.7 11.7,29.8 "/>
<polygon class="st12" points="19.3,0 17.9,1.9 16.2,3.1 18.1,4.5 19.3,6.3 20.6,4.4 22.5,3.2 20.6,1.9 "/><circle class="st12" cx="27.6" cy="21.3" r="1.6"/><polygon class="st12" points="141.1,104.8 141.1,111.7 147,108.3 "/><circle class="st14" cx="158" cy="117.1" r="5.1"/><path class="st12" d="M154.7,88.2h-6.6c-0.6,0-1-0.5-1-1l0,0c0-0.6,0.5-1,1-1h6.6c0.6,0,1,0.5,1,1l0,0
	C155.7,87.8,155.3,88.2,154.7,88.2z"/><path class="st12" d="M150.2,90.5v-6.6c0-0.6,0.5-1,1-1h0c0.6,0,1,0.5,1,1v6.6c0,0.6-0.5,1-1,1h0C150.7,91.5,150.2,91,150.2,90.5z"
	/><path class="st15" d="M94.2,57.4c0,0-21.5,2.7-25.1,27.2c-0.8,9.3,3.9,23.1,18.2,29.8l-5.7-1.2l-7-3.8l-6.6-8.2l-4.1-10V78.6
	l8.2-12.4l3.8-4.1l8.4-4.2l7.2-1.8L94.2,57.4z"/><path class="st5" d="M95.2,46.3c-22.2,0-40.3,18-40.3,40.3s18,40.3,40.3,40.3c22.2,0,40.3-18,40.3-40.3S117.4,46.3,95.2,46.3z
	 M95.2,116.4c-16.5,0-29.8-13.4-29.8-29.8s13.4-29.8,29.8-29.8c16.5,0,29.8,13.4,29.8,29.8S111.7,116.4,95.2,116.4z"/><ellipse class="st3" cx="79.1" cy="204.6" rx="50.7" ry="3.3"/></svg>
